<svg width="43" height="13" viewBox="0 0 43 13" fill="none" xmlns="http://www.w3.org/2000/svg">
<mask id="path-1-outside-1_2_5471" maskUnits="userSpaceOnUse" x="0.360001" y="0.639999" width="43" height="13" fill="black">
<rect fill="white" x="0.360001" y="0.639999" width="43" height="13"/>
<path d="M3.82 2.408C3.82 2.224 3.972 2.052 4.276 1.892C4.58 1.724 4.98 1.64 5.476 1.64C5.86 1.64 6.108 1.72 6.22 1.88C6.3 1.992 6.34 2.096 6.34 2.192V2.552C7.244 2.648 7.872 2.816 8.224 3.056C8.368 3.152 8.44 3.244 8.44 3.332C8.44 3.748 8.34 4.196 8.14 4.676C7.948 5.156 7.76 5.396 7.576 5.396C7.544 5.396 7.44 5.36 7.264 5.288C6.736 5.056 6.296 4.94 5.944 4.94C5.6 4.94 5.364 4.972 5.236 5.036C5.116 5.1 5.056 5.2 5.056 5.336C5.056 5.464 5.144 5.564 5.32 5.636C5.496 5.708 5.712 5.772 5.968 5.828C6.232 5.876 6.516 5.96 6.82 6.08C7.132 6.2 7.42 6.344 7.684 6.512C7.948 6.68 8.168 6.932 8.344 7.268C8.52 7.596 8.608 7.932 8.608 8.276C8.608 8.62 8.576 8.904 8.512 9.128C8.448 9.352 8.336 9.584 8.176 9.824C8.024 10.064 7.788 10.28 7.468 10.472C7.156 10.656 6.78 10.792 6.34 10.88V11.072C6.34 11.256 6.188 11.428 5.884 11.588C5.58 11.756 5.18 11.84 4.684 11.84C4.3 11.84 4.052 11.76 3.94 11.6C3.86 11.488 3.82 11.384 3.82 11.288V10.928C3.3 10.88 2.848 10.804 2.464 10.7C1.728 10.5 1.36 10.284 1.36 10.052C1.36 9.604 1.424 9.14 1.552 8.66C1.68 8.172 1.832 7.928 2.008 7.928C2.04 7.928 2.372 8.036 3.004 8.252C3.636 8.468 4.112 8.576 4.432 8.576C4.752 8.576 4.96 8.544 5.056 8.48C5.152 8.408 5.2 8.308 5.2 8.18C5.2 8.052 5.112 7.944 4.936 7.856C4.76 7.76 4.54 7.684 4.276 7.628C4.012 7.572 3.724 7.484 3.412 7.364C3.108 7.244 2.824 7.104 2.56 6.944C2.296 6.784 2.076 6.548 1.9 6.236C1.724 5.924 1.636 5.56 1.636 5.144C1.636 3.672 2.364 2.812 3.82 2.564V2.408Z"/>
<path d="M12.6408 10.544C12.5768 10.848 12.2208 11 11.5728 11C10.9248 11 10.3368 10.964 9.80875 10.892C9.28875 10.812 9.02875 10.692 9.02875 10.532C9.02875 10.436 9.19675 10.136 9.53275 9.632C9.86875 9.128 10.3768 8.42 11.0568 7.508C9.77675 5.764 9.13675 4.852 9.13675 4.772C9.13675 4.62 9.41675 4.46 9.97675 4.292C10.5368 4.124 11.0088 4.04 11.3928 4.04C11.7768 4.04 12.0728 4.088 12.2808 4.184C12.4968 4.272 12.6168 4.372 12.6408 4.484L13.1688 6.32H13.2768L13.4688 4.592C13.4768 4.544 13.5688 4.48 13.7448 4.4C13.9288 4.312 14.1728 4.232 14.4768 4.16C14.7808 4.08 15.0728 4.04 15.3528 4.04C16.4088 4.04 16.9368 4.22 16.9368 4.58C16.9368 4.692 16.7808 5.008 16.4688 5.528C16.1568 6.04 15.6888 6.756 15.0648 7.676C16.3928 9.476 17.0568 10.428 17.0568 10.532C17.0568 10.844 16.6048 11 15.7008 11C14.3008 11 13.5688 10.848 13.5048 10.544L13.0368 8.972H12.9528L12.6408 10.544Z"/>
<path d="M21.2293 11.108C20.6293 11.108 20.1133 11.056 19.6813 10.952C19.2493 10.848 18.8573 10.664 18.5053 10.4C17.7773 9.872 17.4133 8.888 17.4133 7.448C17.4133 6.168 17.7853 5.252 18.5293 4.7C19.2253 4.188 20.1253 3.932 21.2293 3.932C21.7013 3.932 22.1053 3.956 22.4413 4.004C22.7773 4.044 23.1173 4.136 23.4613 4.28C23.8133 4.424 24.0933 4.62 24.3013 4.868C24.5173 5.116 24.6933 5.46 24.8293 5.9C24.9653 6.332 25.0333 6.848 25.0333 7.448C25.0333 8.664 24.6893 9.58 24.0013 10.196C23.3133 10.804 22.3893 11.108 21.2293 11.108ZM20.8093 8.768C20.8653 9.056 20.9213 9.228 20.9773 9.284C21.0413 9.34 21.1213 9.368 21.2173 9.368C21.3213 9.368 21.4013 9.34 21.4573 9.284C21.5213 9.228 21.5773 9.056 21.6253 8.768C21.6813 8.48 21.7093 8.12 21.7093 7.688C21.7093 7.248 21.6973 6.912 21.6733 6.68C21.6573 6.44 21.6333 6.256 21.6013 6.128C21.5773 6 21.5413 5.9 21.4933 5.828C21.4213 5.724 21.3333 5.672 21.2293 5.672C21.1333 5.672 21.0533 5.704 20.9893 5.768C20.9253 5.824 20.8653 6 20.8093 6.296C20.7533 6.584 20.7253 6.996 20.7253 7.532C20.7253 8.068 20.7533 8.48 20.8093 8.768Z"/>
<path d="M29.0001 10.544C28.9361 10.848 28.5801 11 27.9321 11C27.2841 11 26.6961 10.964 26.1681 10.892C25.6481 10.812 25.3881 10.692 25.3881 10.532C25.3881 10.436 25.5561 10.136 25.8921 9.632C26.2281 9.128 26.7361 8.42 27.4161 7.508C26.1361 5.764 25.4961 4.852 25.4961 4.772C25.4961 4.62 25.7761 4.46 26.3361 4.292C26.8961 4.124 27.3681 4.04 27.7521 4.04C28.1361 4.04 28.4321 4.088 28.6401 4.184C28.8561 4.272 28.9761 4.372 29.0001 4.484L29.5281 6.32H29.6361L29.8281 4.592C29.8361 4.544 29.9281 4.48 30.1041 4.4C30.2881 4.312 30.5321 4.232 30.8361 4.16C31.1401 4.08 31.4321 4.04 31.7121 4.04C32.7681 4.04 33.2961 4.22 33.2961 4.58C33.2961 4.692 33.1401 5.008 32.8281 5.528C32.5161 6.04 32.0481 6.756 31.4241 7.676C32.7521 9.476 33.4161 10.428 33.4161 10.532C33.4161 10.844 32.9641 11 32.0601 11C30.6601 11 29.9281 10.848 29.8641 10.544L29.3961 8.972H29.3121L29.0001 10.544Z"/>
<path d="M37.5887 11.108C36.9887 11.108 36.4727 11.056 36.0407 10.952C35.6087 10.848 35.2167 10.664 34.8647 10.4C34.1367 9.872 33.7727 8.888 33.7727 7.448C33.7727 6.168 34.1447 5.252 34.8887 4.7C35.5847 4.188 36.4847 3.932 37.5887 3.932C38.0607 3.932 38.4647 3.956 38.8007 4.004C39.1367 4.044 39.4767 4.136 39.8207 4.28C40.1727 4.424 40.4527 4.62 40.6607 4.868C40.8767 5.116 41.0527 5.46 41.1887 5.9C41.3247 6.332 41.3927 6.848 41.3927 7.448C41.3927 8.664 41.0487 9.58 40.3607 10.196C39.6727 10.804 38.7487 11.108 37.5887 11.108ZM37.1687 8.768C37.2247 9.056 37.2807 9.228 37.3367 9.284C37.4007 9.34 37.4807 9.368 37.5767 9.368C37.6807 9.368 37.7607 9.34 37.8167 9.284C37.8807 9.228 37.9367 9.056 37.9847 8.768C38.0407 8.48 38.0687 8.12 38.0687 7.688C38.0687 7.248 38.0567 6.912 38.0327 6.68C38.0167 6.44 37.9927 6.256 37.9607 6.128C37.9367 6 37.9007 5.9 37.8527 5.828C37.7807 5.724 37.6927 5.672 37.5887 5.672C37.4927 5.672 37.4127 5.704 37.3487 5.768C37.2847 5.824 37.2247 6 37.1687 6.296C37.1127 6.584 37.0847 6.996 37.0847 7.532C37.0847 8.068 37.1127 8.48 37.1687 8.768Z"/>
</mask>
<path d="M3.82 2.408C3.82 2.224 3.972 2.052 4.276 1.892C4.58 1.724 4.98 1.64 5.476 1.64C5.86 1.64 6.108 1.72 6.22 1.88C6.3 1.992 6.34 2.096 6.34 2.192V2.552C7.244 2.648 7.872 2.816 8.224 3.056C8.368 3.152 8.44 3.244 8.44 3.332C8.44 3.748 8.34 4.196 8.14 4.676C7.948 5.156 7.76 5.396 7.576 5.396C7.544 5.396 7.44 5.36 7.264 5.288C6.736 5.056 6.296 4.94 5.944 4.94C5.6 4.94 5.364 4.972 5.236 5.036C5.116 5.1 5.056 5.2 5.056 5.336C5.056 5.464 5.144 5.564 5.32 5.636C5.496 5.708 5.712 5.772 5.968 5.828C6.232 5.876 6.516 5.96 6.82 6.08C7.132 6.2 7.42 6.344 7.684 6.512C7.948 6.68 8.168 6.932 8.344 7.268C8.52 7.596 8.608 7.932 8.608 8.276C8.608 8.62 8.576 8.904 8.512 9.128C8.448 9.352 8.336 9.584 8.176 9.824C8.024 10.064 7.788 10.28 7.468 10.472C7.156 10.656 6.78 10.792 6.34 10.88V11.072C6.34 11.256 6.188 11.428 5.884 11.588C5.58 11.756 5.18 11.84 4.684 11.84C4.3 11.84 4.052 11.76 3.94 11.6C3.86 11.488 3.82 11.384 3.82 11.288V10.928C3.3 10.88 2.848 10.804 2.464 10.7C1.728 10.5 1.36 10.284 1.36 10.052C1.36 9.604 1.424 9.14 1.552 8.66C1.68 8.172 1.832 7.928 2.008 7.928C2.04 7.928 2.372 8.036 3.004 8.252C3.636 8.468 4.112 8.576 4.432 8.576C4.752 8.576 4.96 8.544 5.056 8.48C5.152 8.408 5.2 8.308 5.2 8.18C5.2 8.052 5.112 7.944 4.936 7.856C4.76 7.76 4.54 7.684 4.276 7.628C4.012 7.572 3.724 7.484 3.412 7.364C3.108 7.244 2.824 7.104 2.56 6.944C2.296 6.784 2.076 6.548 1.9 6.236C1.724 5.924 1.636 5.56 1.636 5.144C1.636 3.672 2.364 2.812 3.82 2.564V2.408Z" fill="white"/>
<path d="M12.6408 10.544C12.5768 10.848 12.2208 11 11.5728 11C10.9248 11 10.3368 10.964 9.80875 10.892C9.28875 10.812 9.02875 10.692 9.02875 10.532C9.02875 10.436 9.19675 10.136 9.53275 9.632C9.86875 9.128 10.3768 8.42 11.0568 7.508C9.77675 5.764 9.13675 4.852 9.13675 4.772C9.13675 4.62 9.41675 4.46 9.97675 4.292C10.5368 4.124 11.0088 4.04 11.3928 4.04C11.7768 4.04 12.0728 4.088 12.2808 4.184C12.4968 4.272 12.6168 4.372 12.6408 4.484L13.1688 6.32H13.2768L13.4688 4.592C13.4768 4.544 13.5688 4.48 13.7448 4.4C13.9288 4.312 14.1728 4.232 14.4768 4.16C14.7808 4.08 15.0728 4.04 15.3528 4.04C16.4088 4.04 16.9368 4.22 16.9368 4.58C16.9368 4.692 16.7808 5.008 16.4688 5.528C16.1568 6.04 15.6888 6.756 15.0648 7.676C16.3928 9.476 17.0568 10.428 17.0568 10.532C17.0568 10.844 16.6048 11 15.7008 11C14.3008 11 13.5688 10.848 13.5048 10.544L13.0368 8.972H12.9528L12.6408 10.544Z" fill="white"/>
<path d="M21.2293 11.108C20.6293 11.108 20.1133 11.056 19.6813 10.952C19.2493 10.848 18.8573 10.664 18.5053 10.4C17.7773 9.872 17.4133 8.888 17.4133 7.448C17.4133 6.168 17.7853 5.252 18.5293 4.7C19.2253 4.188 20.1253 3.932 21.2293 3.932C21.7013 3.932 22.1053 3.956 22.4413 4.004C22.7773 4.044 23.1173 4.136 23.4613 4.28C23.8133 4.424 24.0933 4.62 24.3013 4.868C24.5173 5.116 24.6933 5.46 24.8293 5.9C24.9653 6.332 25.0333 6.848 25.0333 7.448C25.0333 8.664 24.6893 9.58 24.0013 10.196C23.3133 10.804 22.3893 11.108 21.2293 11.108ZM20.8093 8.768C20.8653 9.056 20.9213 9.228 20.9773 9.284C21.0413 9.34 21.1213 9.368 21.2173 9.368C21.3213 9.368 21.4013 9.34 21.4573 9.284C21.5213 9.228 21.5773 9.056 21.6253 8.768C21.6813 8.48 21.7093 8.12 21.7093 7.688C21.7093 7.248 21.6973 6.912 21.6733 6.68C21.6573 6.44 21.6333 6.256 21.6013 6.128C21.5773 6 21.5413 5.9 21.4933 5.828C21.4213 5.724 21.3333 5.672 21.2293 5.672C21.1333 5.672 21.0533 5.704 20.9893 5.768C20.9253 5.824 20.8653 6 20.8093 6.296C20.7533 6.584 20.7253 6.996 20.7253 7.532C20.7253 8.068 20.7533 8.48 20.8093 8.768Z" fill="white"/>
<path d="M29.0001 10.544C28.9361 10.848 28.5801 11 27.9321 11C27.2841 11 26.6961 10.964 26.1681 10.892C25.6481 10.812 25.3881 10.692 25.3881 10.532C25.3881 10.436 25.5561 10.136 25.8921 9.632C26.2281 9.128 26.7361 8.42 27.4161 7.508C26.1361 5.764 25.4961 4.852 25.4961 4.772C25.4961 4.62 25.7761 4.46 26.3361 4.292C26.8961 4.124 27.3681 4.04 27.7521 4.04C28.1361 4.04 28.4321 4.088 28.6401 4.184C28.8561 4.272 28.9761 4.372 29.0001 4.484L29.5281 6.32H29.6361L29.8281 4.592C29.8361 4.544 29.9281 4.48 30.1041 4.4C30.2881 4.312 30.5321 4.232 30.8361 4.16C31.1401 4.08 31.4321 4.04 31.7121 4.04C32.7681 4.04 33.2961 4.22 33.2961 4.58C33.2961 4.692 33.1401 5.008 32.8281 5.528C32.5161 6.04 32.0481 6.756 31.4241 7.676C32.7521 9.476 33.4161 10.428 33.4161 10.532C33.4161 10.844 32.9641 11 32.0601 11C30.6601 11 29.9281 10.848 29.8641 10.544L29.3961 8.972H29.3121L29.0001 10.544Z" fill="white"/>
<path d="M37.5887 11.108C36.9887 11.108 36.4727 11.056 36.0407 10.952C35.6087 10.848 35.2167 10.664 34.8647 10.4C34.1367 9.872 33.7727 8.888 33.7727 7.448C33.7727 6.168 34.1447 5.252 34.8887 4.7C35.5847 4.188 36.4847 3.932 37.5887 3.932C38.0607 3.932 38.4647 3.956 38.8007 4.004C39.1367 4.044 39.4767 4.136 39.8207 4.28C40.1727 4.424 40.4527 4.62 40.6607 4.868C40.8767 5.116 41.0527 5.46 41.1887 5.9C41.3247 6.332 41.3927 6.848 41.3927 7.448C41.3927 8.664 41.0487 9.58 40.3607 10.196C39.6727 10.804 38.7487 11.108 37.5887 11.108ZM37.1687 8.768C37.2247 9.056 37.2807 9.228 37.3367 9.284C37.4007 9.34 37.4807 9.368 37.5767 9.368C37.6807 9.368 37.7607 9.34 37.8167 9.284C37.8807 9.228 37.9367 9.056 37.9847 8.768C38.0407 8.48 38.0687 8.12 38.0687 7.688C38.0687 7.248 38.0567 6.912 38.0327 6.68C38.0167 6.44 37.9927 6.256 37.9607 6.128C37.9367 6 37.9007 5.9 37.8527 5.828C37.7807 5.724 37.6927 5.672 37.5887 5.672C37.4927 5.672 37.4127 5.704 37.3487 5.768C37.2847 5.824 37.2247 6 37.1687 6.296C37.1127 6.584 37.0847 6.996 37.0847 7.532C37.0847 8.068 37.1127 8.48 37.1687 8.768Z" fill="white"/>
<path d="M3.82 2.408C3.82 2.224 3.972 2.052 4.276 1.892C4.58 1.724 4.98 1.64 5.476 1.64C5.86 1.64 6.108 1.72 6.22 1.88C6.3 1.992 6.34 2.096 6.34 2.192V2.552C7.244 2.648 7.872 2.816 8.224 3.056C8.368 3.152 8.44 3.244 8.44 3.332C8.44 3.748 8.34 4.196 8.14 4.676C7.948 5.156 7.76 5.396 7.576 5.396C7.544 5.396 7.44 5.36 7.264 5.288C6.736 5.056 6.296 4.94 5.944 4.94C5.6 4.94 5.364 4.972 5.236 5.036C5.116 5.1 5.056 5.2 5.056 5.336C5.056 5.464 5.144 5.564 5.32 5.636C5.496 5.708 5.712 5.772 5.968 5.828C6.232 5.876 6.516 5.96 6.82 6.08C7.132 6.2 7.42 6.344 7.684 6.512C7.948 6.68 8.168 6.932 8.344 7.268C8.52 7.596 8.608 7.932 8.608 8.276C8.608 8.62 8.576 8.904 8.512 9.128C8.448 9.352 8.336 9.584 8.176 9.824C8.024 10.064 7.788 10.28 7.468 10.472C7.156 10.656 6.78 10.792 6.34 10.88V11.072C6.34 11.256 6.188 11.428 5.884 11.588C5.58 11.756 5.18 11.84 4.684 11.84C4.3 11.84 4.052 11.76 3.94 11.6C3.86 11.488 3.82 11.384 3.82 11.288V10.928C3.3 10.88 2.848 10.804 2.464 10.7C1.728 10.5 1.36 10.284 1.36 10.052C1.36 9.604 1.424 9.14 1.552 8.66C1.68 8.172 1.832 7.928 2.008 7.928C2.04 7.928 2.372 8.036 3.004 8.252C3.636 8.468 4.112 8.576 4.432 8.576C4.752 8.576 4.96 8.544 5.056 8.48C5.152 8.408 5.2 8.308 5.2 8.18C5.2 8.052 5.112 7.944 4.936 7.856C4.76 7.76 4.54 7.684 4.276 7.628C4.012 7.572 3.724 7.484 3.412 7.364C3.108 7.244 2.824 7.104 2.56 6.944C2.296 6.784 2.076 6.548 1.9 6.236C1.724 5.924 1.636 5.56 1.636 5.144C1.636 3.672 2.364 2.812 3.82 2.564V2.408Z" stroke="#F27BBD" stroke-width="2" mask="url(#path-1-outside-1_2_5471)"/>
<path d="M12.6408 10.544C12.5768 10.848 12.2208 11 11.5728 11C10.9248 11 10.3368 10.964 9.80875 10.892C9.28875 10.812 9.02875 10.692 9.02875 10.532C9.02875 10.436 9.19675 10.136 9.53275 9.632C9.86875 9.128 10.3768 8.42 11.0568 7.508C9.77675 5.764 9.13675 4.852 9.13675 4.772C9.13675 4.62 9.41675 4.46 9.97675 4.292C10.5368 4.124 11.0088 4.04 11.3928 4.04C11.7768 4.04 12.0728 4.088 12.2808 4.184C12.4968 4.272 12.6168 4.372 12.6408 4.484L13.1688 6.32H13.2768L13.4688 4.592C13.4768 4.544 13.5688 4.48 13.7448 4.4C13.9288 4.312 14.1728 4.232 14.4768 4.16C14.7808 4.08 15.0728 4.04 15.3528 4.04C16.4088 4.04 16.9368 4.22 16.9368 4.58C16.9368 4.692 16.7808 5.008 16.4688 5.528C16.1568 6.04 15.6888 6.756 15.0648 7.676C16.3928 9.476 17.0568 10.428 17.0568 10.532C17.0568 10.844 16.6048 11 15.7008 11C14.3008 11 13.5688 10.848 13.5048 10.544L13.0368 8.972H12.9528L12.6408 10.544Z" stroke="#F27BBD" stroke-width="2" mask="url(#path-1-outside-1_2_5471)"/>
<path d="M21.2293 11.108C20.6293 11.108 20.1133 11.056 19.6813 10.952C19.2493 10.848 18.8573 10.664 18.5053 10.4C17.7773 9.872 17.4133 8.888 17.4133 7.448C17.4133 6.168 17.7853 5.252 18.5293 4.7C19.2253 4.188 20.1253 3.932 21.2293 3.932C21.7013 3.932 22.1053 3.956 22.4413 4.004C22.7773 4.044 23.1173 4.136 23.4613 4.28C23.8133 4.424 24.0933 4.62 24.3013 4.868C24.5173 5.116 24.6933 5.46 24.8293 5.9C24.9653 6.332 25.0333 6.848 25.0333 7.448C25.0333 8.664 24.6893 9.58 24.0013 10.196C23.3133 10.804 22.3893 11.108 21.2293 11.108ZM20.8093 8.768C20.8653 9.056 20.9213 9.228 20.9773 9.284C21.0413 9.34 21.1213 9.368 21.2173 9.368C21.3213 9.368 21.4013 9.34 21.4573 9.284C21.5213 9.228 21.5773 9.056 21.6253 8.768C21.6813 8.48 21.7093 8.12 21.7093 7.688C21.7093 7.248 21.6973 6.912 21.6733 6.68C21.6573 6.44 21.6333 6.256 21.6013 6.128C21.5773 6 21.5413 5.9 21.4933 5.828C21.4213 5.724 21.3333 5.672 21.2293 5.672C21.1333 5.672 21.0533 5.704 20.9893 5.768C20.9253 5.824 20.8653 6 20.8093 6.296C20.7533 6.584 20.7253 6.996 20.7253 7.532C20.7253 8.068 20.7533 8.48 20.8093 8.768Z" stroke="#F27BBD" stroke-width="2" mask="url(#path-1-outside-1_2_5471)"/>
<path d="M29.0001 10.544C28.9361 10.848 28.5801 11 27.9321 11C27.2841 11 26.6961 10.964 26.1681 10.892C25.6481 10.812 25.3881 10.692 25.3881 10.532C25.3881 10.436 25.5561 10.136 25.8921 9.632C26.2281 9.128 26.7361 8.42 27.4161 7.508C26.1361 5.764 25.4961 4.852 25.4961 4.772C25.4961 4.62 25.7761 4.46 26.3361 4.292C26.8961 4.124 27.3681 4.04 27.7521 4.04C28.1361 4.04 28.4321 4.088 28.6401 4.184C28.8561 4.272 28.9761 4.372 29.0001 4.484L29.5281 6.32H29.6361L29.8281 4.592C29.8361 4.544 29.9281 4.48 30.1041 4.4C30.2881 4.312 30.5321 4.232 30.8361 4.16C31.1401 4.08 31.4321 4.04 31.7121 4.04C32.7681 4.04 33.2961 4.22 33.2961 4.58C33.2961 4.692 33.1401 5.008 32.8281 5.528C32.5161 6.04 32.0481 6.756 31.4241 7.676C32.7521 9.476 33.4161 10.428 33.4161 10.532C33.4161 10.844 32.9641 11 32.0601 11C30.6601 11 29.9281 10.848 29.8641 10.544L29.3961 8.972H29.3121L29.0001 10.544Z" stroke="#F27BBD" stroke-width="2" mask="url(#path-1-outside-1_2_5471)"/>
<path d="M37.5887 11.108C36.9887 11.108 36.4727 11.056 36.0407 10.952C35.6087 10.848 35.2167 10.664 34.8647 10.4C34.1367 9.872 33.7727 8.888 33.7727 7.448C33.7727 6.168 34.1447 5.252 34.8887 4.7C35.5847 4.188 36.4847 3.932 37.5887 3.932C38.0607 3.932 38.4647 3.956 38.8007 4.004C39.1367 4.044 39.4767 4.136 39.8207 4.28C40.1727 4.424 40.4527 4.62 40.6607 4.868C40.8767 5.116 41.0527 5.46 41.1887 5.9C41.3247 6.332 41.3927 6.848 41.3927 7.448C41.3927 8.664 41.0487 9.58 40.3607 10.196C39.6727 10.804 38.7487 11.108 37.5887 11.108ZM37.1687 8.768C37.2247 9.056 37.2807 9.228 37.3367 9.284C37.4007 9.34 37.4807 9.368 37.5767 9.368C37.6807 9.368 37.7607 9.34 37.8167 9.284C37.8807 9.228 37.9367 9.056 37.9847 8.768C38.0407 8.48 38.0687 8.12 38.0687 7.688C38.0687 7.248 38.0567 6.912 38.0327 6.68C38.0167 6.44 37.9927 6.256 37.9607 6.128C37.9367 6 37.9007 5.9 37.8527 5.828C37.7807 5.724 37.6927 5.672 37.5887 5.672C37.4927 5.672 37.4127 5.704 37.3487 5.768C37.2847 5.824 37.2247 6 37.1687 6.296C37.1127 6.584 37.0847 6.996 37.0847 7.532C37.0847 8.068 37.1127 8.48 37.1687 8.768Z" stroke="#F27BBD" stroke-width="2" mask="url(#path-1-outside-1_2_5471)"/>
</svg>
